<svg xmlns="http://www.w3.org/2000/svg" viewBox="0 0 108 108" width="108" height="108">
<rect x="0" y="0" width="108" height="108" fill="#0B0B0D"/>
<rect x="23" y="7" width="61" height="96" rx="4" fill="#1B1B20" stroke="#40FFFFFF" stroke-width="1"/>
<rect x="47" y="10" width="6" height="6" rx="1" fill="#E53935" stroke="#000" stroke-opacity="0.35" stroke-width="0.6"/>
<rect x="54" y="10" width="6" height="6" rx="1" fill="#1E88E5" stroke="#000" stroke-opacity="0.35" stroke-width="0.6"/>
<rect x="33" y="17" width="6" height="6" rx="1" fill="#FDD835" stroke="#000" stroke-opacity="0.35" stroke-width="0.6"/>
<rect x="40" y="17" width="6" height="6" rx="1" fill="#00ACC1" stroke="#000" stroke-opacity="0.35" stroke-width="0.6"/>
<rect x="47" y="17" width="6" height="6" rx="1" fill="#43A047" stroke="#000" stroke-opacity="0.35" stroke-width="0.6"/>
<rect x="54" y="17" width="6" height="6" rx="1" fill="#FDD835" stroke="#000" stroke-opacity="0.35" stroke-width="0.6"/>
<rect x="61" y="17" width="6" height="6" rx="1" fill="#00ACC1" stroke="#000" stroke-opacity="0.35" stroke-width="0.6"/>
<rect x="68" y="17" width="6" height="6" rx="1" fill="#43A047" stroke="#000" stroke-opacity="0.35" stroke-width="0.6"/>
<rect x="26" y="24" width="6" height="6" rx="1" fill="#1E88E5" stroke="#000" stroke-opacity="0.35" stroke-width="0.6"/>
<rect x="33" y="24" width="6" height="6" rx="1" fill="#8E24AA" stroke="#000" stroke-opacity="0.35" stroke-width="0.6"/>
<rect x="40" y="24" width="6" height="6" rx="1" fill="#E53935" stroke="#000" stroke-opacity="0.35" stroke-width="0.6"/>
<rect x="47" y="24" width="6" height="6" rx="1" fill="#1E88E5" stroke="#000" stroke-opacity="0.35" stroke-width="0.6"/>
<rect x="54" y="24" width="6" height="6" rx="1" fill="#8E24AA" stroke="#000" stroke-opacity="0.35" stroke-width="0.6"/>
<rect x="61" y="24" width="6" height="6" rx="1" fill="#E53935" stroke="#000" stroke-opacity="0.35" stroke-width="0.6"/>
<rect x="68" y="24" width="6" height="6" rx="1" fill="#1E88E5" stroke="#000" stroke-opacity="0.35" stroke-width="0.6"/>
<rect x="75" y="24" width="6" height="6" rx="1" fill="#8E24AA" stroke="#000" stroke-opacity="0.35" stroke-width="0.6"/>
<rect x="26" y="31" width="6" height="6" rx="1" fill="#FDD835" stroke="#000" stroke-opacity="0.35" stroke-width="0.6"/>
<rect x="33" y="31" width="6" height="6" rx="1" fill="#00ACC1" stroke="#000" stroke-opacity="0.35" stroke-width="0.6"/>
<rect x="40" y="31" width="6" height="6" rx="1" fill="#43A047" stroke="#000" stroke-opacity="0.35" stroke-width="0.6"/>
<rect x="47" y="31" width="6" height="6" rx="1" fill="#FDD835" stroke="#000" stroke-opacity="0.35" stroke-width="0.6"/>
<rect x="54" y="31" width="6" height="6" rx="1" fill="#00ACC1" stroke="#000" stroke-opacity="0.35" stroke-width="0.6"/>
<rect x="61" y="31" width="6" height="6" rx="1" fill="#43A047" stroke="#000" stroke-opacity="0.35" stroke-width="0.6"/>
<rect x="68" y="31" width="6" height="6" rx="1" fill="#FDD835" stroke="#000" stroke-opacity="0.35" stroke-width="0.6"/>
<rect x="75" y="31" width="6" height="6" rx="1" fill="#00ACC1" stroke="#000" stroke-opacity="0.35" stroke-width="0.6"/>
<rect x="26" y="38" width="6" height="6" rx="1" fill="#8E24AA" stroke="#000" stroke-opacity="0.35" stroke-width="0.6"/>
<rect x="33" y="38" width="6" height="6" rx="1" fill="#E53935" stroke="#000" stroke-opacity="0.35" stroke-width="0.6"/>
<rect x="40" y="38" width="6" height="6" rx="1" fill="#1E88E5" stroke="#000" stroke-opacity="0.35" stroke-width="0.6"/>
<rect x="47" y="38" width="6" height="6" rx="1" fill="#8E24AA" stroke="#000" stroke-opacity="0.35" stroke-width="0.6"/>
<rect x="54" y="38" width="6" height="6" rx="1" fill="#E53935" stroke="#000" stroke-opacity="0.35" stroke-width="0.6"/>
<rect x="61" y="38" width="6" height="6" rx="1" fill="#1E88E5" stroke="#000" stroke-opacity="0.35" stroke-width="0.6"/>
<rect x="68" y="38" width="6" height="6" rx="1" fill="#8E24AA" stroke="#000" stroke-opacity="0.35" stroke-width="0.6"/>
<rect x="75" y="38" width="6" height="6" rx="1" fill="#E53935" stroke="#000" stroke-opacity="0.35" stroke-width="0.6"/>
<rect x="26" y="45" width="6" height="6" rx="1" fill="#00ACC1" stroke="#000" stroke-opacity="0.35" stroke-width="0.6"/>
<rect x="33" y="45" width="6" height="6" rx="1" fill="#43A047" stroke="#000" stroke-opacity="0.35" stroke-width="0.6"/>
<rect x="40" y="45" width="6" height="6" rx="1" fill="#FDD835" stroke="#000" stroke-opacity="0.35" stroke-width="0.6"/>
<rect x="47" y="45" width="6" height="6" rx="1" fill="#00ACC1" stroke="#000" stroke-opacity="0.35" stroke-width="0.6"/>
<rect x="54" y="45" width="6" height="6" rx="1" fill="#43A047" stroke="#000" stroke-opacity="0.35" stroke-width="0.6"/>
<rect x="61" y="45" width="6" height="6" rx="1" fill="#FDD835" stroke="#000" stroke-opacity="0.35" stroke-width="0.6"/>
<rect x="68" y="45" width="6" height="6" rx="1" fill="#00ACC1" stroke="#000" stroke-opacity="0.35" stroke-width="0.6"/>
<rect x="75" y="45" width="6" height="6" rx="1" fill="#43A047" stroke="#000" stroke-opacity="0.35" stroke-width="0.6"/>
<rect x="26" y="52" width="6" height="6" rx="1" fill="#E53935" stroke="#000" stroke-opacity="0.35" stroke-width="0.6"/>
<rect x="40" y="52" width="6" height="6" rx="1" fill="#8E24AA" stroke="#000" stroke-opacity="0.35" stroke-width="0.6"/>
<rect x="47" y="52" width="6" height="6" rx="1" fill="#E53935" stroke="#000" stroke-opacity="0.35" stroke-width="0.6"/>
<rect x="54" y="52" width="6" height="6" rx="1" fill="#1E88E5" stroke="#000" stroke-opacity="0.35" stroke-width="0.6"/>
<rect x="61" y="52" width="6" height="6" rx="1" fill="#8E24AA" stroke="#000" stroke-opacity="0.35" stroke-width="0.6"/>
<rect x="68" y="52" width="6" height="6" rx="1" fill="#E53935" stroke="#000" stroke-opacity="0.35" stroke-width="0.6"/>
<rect x="75" y="52" width="6" height="6" rx="1" fill="#1E88E5" stroke="#000" stroke-opacity="0.35" stroke-width="0.6"/>
<rect x="26" y="59" width="6" height="6" rx="1" fill="#43A047" stroke="#000" stroke-opacity="0.35" stroke-width="0.6"/>
<rect x="33" y="59" width="6" height="6" rx="1" fill="#FDD835" stroke="#000" stroke-opacity="0.35" stroke-width="0.6"/>
<rect x="40" y="59" width="6" height="6" rx="1" fill="#00ACC1" stroke="#000" stroke-opacity="0.35" stroke-width="0.6"/>
<rect x="47" y="59" width="6" height="6" rx="1" fill="#43A047" stroke="#000" stroke-opacity="0.35" stroke-width="0.6"/>
<rect x="54" y="59" width="6" height="6" rx="1" fill="#FDD835" stroke="#000" stroke-opacity="0.35" stroke-width="0.6"/>
<rect x="61" y="59" width="6" height="6" rx="1" fill="#00ACC1" stroke="#000" stroke-opacity="0.35" stroke-width="0.6"/>
<rect x="68" y="59" width="6" height="6" rx="1" fill="#43A047" stroke="#000" stroke-opacity="0.35" stroke-width="0.6"/>
<rect x="75" y="59" width="6" height="6" rx="1" fill="#FDD835" stroke="#000" stroke-opacity="0.35" stroke-width="0.6"/>
<rect x="26" y="66" width="6" height="6" rx="1" fill="#1E88E5" stroke="#000" stroke-opacity="0.35" stroke-width="0.6"/>
<rect x="33" y="66" width="6" height="6" rx="1" fill="#8E24AA" stroke="#000" stroke-opacity="0.35" stroke-width="0.6"/>
<rect x="40" y="66" width="6" height="6" rx="1" fill="#E53935" stroke="#000" stroke-opacity="0.35" stroke-width="0.6"/>
<rect x="47" y="66" width="6" height="6" rx="1" fill="#1E88E5" stroke="#000" stroke-opacity="0.35" stroke-width="0.6"/>
<rect x="54" y="66" width="6" height="6" rx="1" fill="#8E24AA" stroke="#000" stroke-opacity="0.35" stroke-width="0.6"/>
<rect x="61" y="66" width="6" height="6" rx="1" fill="#E53935" stroke="#000" stroke-opacity="0.35" stroke-width="0.6"/>
<rect x="68" y="66" width="6" height="6" rx="1" fill="#1E88E5" stroke="#000" stroke-opacity="0.35" stroke-width="0.6"/>
<rect x="75" y="66" width="6" height="6" rx="1" fill="#8E24AA" stroke="#000" stroke-opacity="0.35" stroke-width="0.6"/>
<rect x="26" y="73" width="6" height="6" rx="1" fill="#FDD835" stroke="#000" stroke-opacity="0.35" stroke-width="0.6"/>
<rect x="33" y="73" width="6" height="6" rx="1" fill="#00ACC1" stroke="#000" stroke-opacity="0.35" stroke-width="0.6"/>
<rect x="40" y="73" width="6" height="6" rx="1" fill="#43A047" stroke="#000" stroke-opacity="0.35" stroke-width="0.6"/>
<rect x="47" y="73" width="6" height="6" rx="1" fill="#FDD835" stroke="#000" stroke-opacity="0.35" stroke-width="0.6"/>
<rect x="54" y="73" width="6" height="6" rx="1" fill="#00ACC1" stroke="#000" stroke-opacity="0.35" stroke-width="0.6"/>
<rect x="61" y="73" width="6" height="6" rx="1" fill="#43A047" stroke="#000" stroke-opacity="0.35" stroke-width="0.6"/>
<rect x="75" y="73" width="6" height="6" rx="1" fill="#00ACC1" stroke="#000" stroke-opacity="0.35" stroke-width="0.6"/>
<rect x="26" y="80" width="6" height="6" rx="1" fill="#8E24AA" stroke="#000" stroke-opacity="0.35" stroke-width="0.6"/>
<rect x="33" y="80" width="6" height="6" rx="1" fill="#E53935" stroke="#000" stroke-opacity="0.35" stroke-width="0.6"/>
<rect x="40" y="80" width="6" height="6" rx="1" fill="#1E88E5" stroke="#000" stroke-opacity="0.35" stroke-width="0.6"/>
<rect x="47" y="80" width="6" height="6" rx="1" fill="#8E24AA" stroke="#000" stroke-opacity="0.35" stroke-width="0.6"/>
<rect x="54" y="80" width="6" height="6" rx="1" fill="#E53935" stroke="#000" stroke-opacity="0.35" stroke-width="0.6"/>
<rect x="61" y="80" width="6" height="6" rx="1" fill="#1E88E5" stroke="#000" stroke-opacity="0.35" stroke-width="0.6"/>
<rect x="68" y="80" width="6" height="6" rx="1" fill="#8E24AA" stroke="#000" stroke-opacity="0.35" stroke-width="0.6"/>
<rect x="75" y="80" width="6" height="6" rx="1" fill="#E53935" stroke="#000" stroke-opacity="0.35" stroke-width="0.6"/>
<rect x="26" y="87" width="6" height="6" rx="1" fill="#00ACC1" stroke="#000" stroke-opacity="0.35" stroke-width="0.6"/>
<rect x="33" y="87" width="6" height="6" rx="1" fill="#43A047" stroke="#000" stroke-opacity="0.35" stroke-width="0.6"/>
<rect x="40" y="87" width="6" height="6" rx="1" fill="#FDD835" stroke="#000" stroke-opacity="0.35" stroke-width="0.6"/>
<rect x="47" y="87" width="6" height="6" rx="1" fill="#00ACC1" stroke="#000" stroke-opacity="0.35" stroke-width="0.6"/>
<rect x="54" y="87" width="6" height="6" rx="1" fill="#43A047" stroke="#000" stroke-opacity="0.35" stroke-width="0.6"/>
<rect x="61" y="87" width="6" height="6" rx="1" fill="#FDD835" stroke="#000" stroke-opacity="0.35" stroke-width="0.6"/>
<rect x="68" y="87" width="6" height="6" rx="1" fill="#00ACC1" stroke="#000" stroke-opacity="0.35" stroke-width="0.6"/>
<rect x="75" y="87" width="6" height="6" rx="1" fill="#43A047" stroke="#000" stroke-opacity="0.35" stroke-width="0.6"/>
<rect x="26" y="94" width="6" height="6" rx="1" fill="#E53935" stroke="#000" stroke-opacity="0.35" stroke-width="0.6"/>
<rect x="33" y="94" width="6" height="6" rx="1" fill="#1E88E5" stroke="#000" stroke-opacity="0.35" stroke-width="0.6"/>
<rect x="40" y="94" width="6" height="6" rx="1" fill="#8E24AA" stroke="#000" stroke-opacity="0.35" stroke-width="0.6"/>
<rect x="47" y="94" width="6" height="6" rx="1" fill="#E53935" stroke="#000" stroke-opacity="0.35" stroke-width="0.6"/>
<rect x="54" y="94" width="6" height="6" rx="1" fill="#1E88E5" stroke="#000" stroke-opacity="0.35" stroke-width="0.6"/>
<rect x="61" y="94" width="6" height="6" rx="1" fill="#8E24AA" stroke="#000" stroke-opacity="0.35" stroke-width="0.6"/>
<rect x="68" y="94" width="6" height="6" rx="1" fill="#E53935" stroke="#000" stroke-opacity="0.35" stroke-width="0.6"/>
<rect x="75" y="94" width="6" height="6" rx="1" fill="#1E88E5" stroke="#000" stroke-opacity="0.35" stroke-width="0.6"/>
<rect x="53" y="9" width="8" height="22" rx="2" fill="none" stroke="#FFFFFF" stroke-opacity="0.85" stroke-width="1"/>
</svg>